<?xml version="1.0" encoding="UTF-8" standalone="no"?>
<!DOCTYPE svg PUBLIC "-//W3C//DTD SVG 1.1//EN"
 "http://www.w3.org/Graphics/SVG/1.1/DTD/svg11.dtd">
<!-- Generated by graphviz version 2.36.0 (20140111.2315)
 -->
<!-- Title: red_black_tree Pages: 1 -->
<svg width="278pt" height="260pt"
 viewBox="0.00 0.00 278.00 260.00" xmlns="http://www.w3.org/2000/svg" xmlns:xlink="http://www.w3.org/1999/xlink">
<g id="graph0" class="graph" transform="scale(1 1) rotate(0) translate(4 256)">
<title>red_black_tree</title>
<polygon fill="white" stroke="none" points="-4,4 -4,-256 274,-256 274,4 -4,4"/>
<!-- N140465684076304 -->
<g id="node1" class="node"><title>N140465684076304</title>
<ellipse fill="none" stroke="black" cx="135" cy="-234" rx="27" ry="18"/>
<text text-anchor="middle" x="135" y="-230.3" font-family="Times,serif" font-size="14.00">14</text>
</g>
<!-- N140465684075984 -->
<g id="node2" class="node"><title>N140465684075984</title>
<ellipse fill="none" stroke="red" cx="99" cy="-162" rx="27" ry="18"/>
<text text-anchor="middle" x="99" y="-158.3" font-family="Times,serif" font-size="14.00">7</text>
</g>
<!-- N140465684076304&#45;&gt;N140465684075984 -->
<g id="edge4" class="edge"><title>N140465684076304&#45;&gt;N140465684075984</title>
<path fill="none" stroke="black" d="M126.65,-216.765C122.288,-208.283 116.853,-197.714 111.959,-188.197"/>
<polygon fill="black" stroke="black" points="114.99,-186.439 107.304,-179.147 108.765,-189.641 114.99,-186.439"/>
</g>
<!-- N140465684076432 -->
<g id="node6" class="node"><title>N140465684076432</title>
<ellipse fill="none" stroke="red" cx="171" cy="-162" rx="27" ry="18"/>
<text text-anchor="middle" x="171" y="-158.3" font-family="Times,serif" font-size="14.00">16</text>
</g>
<!-- N140465684076304&#45;&gt;N140465684076432 -->
<g id="edge8" class="edge"><title>N140465684076304&#45;&gt;N140465684076432</title>
<path fill="none" stroke="black" d="M143.35,-216.765C147.712,-208.283 153.147,-197.714 158.041,-188.197"/>
<polygon fill="black" stroke="black" points="161.235,-189.641 162.696,-179.147 155.01,-186.439 161.235,-189.641"/>
</g>
<!-- N140465684075920 -->
<g id="node3" class="node"><title>N140465684075920</title>
<ellipse fill="none" stroke="black" cx="27" cy="-90" rx="27" ry="18"/>
<text text-anchor="middle" x="27" y="-86.3" font-family="Times,serif" font-size="14.00">4</text>
</g>
<!-- N140465684075984&#45;&gt;N140465684075920 -->
<g id="edge2" class="edge"><title>N140465684075984&#45;&gt;N140465684075920</title>
<path fill="none" stroke="black" d="M84.4297,-146.834C74.2501,-136.938 60.4761,-123.546 48.9694,-112.359"/>
<polygon fill="black" stroke="black" points="51.4055,-109.846 41.7957,-105.385 46.5259,-114.865 51.4055,-109.846"/>
</g>
<!-- N140465684076048 -->
<g id="node5" class="node"><title>N140465684076048</title>
<ellipse fill="none" stroke="black" cx="99" cy="-90" rx="27" ry="18"/>
<text text-anchor="middle" x="99" y="-86.3" font-family="Times,serif" font-size="14.00">12</text>
</g>
<!-- N140465684075984&#45;&gt;N140465684076048 -->
<g id="edge3" class="edge"><title>N140465684075984&#45;&gt;N140465684076048</title>
<path fill="none" stroke="black" d="M99,-143.697C99,-135.983 99,-126.712 99,-118.112"/>
<polygon fill="black" stroke="black" points="102.5,-118.104 99,-108.104 95.5001,-118.104 102.5,-118.104"/>
</g>
<!-- N140465684076240 -->
<g id="node4" class="node"><title>N140465684076240</title>
<ellipse fill="none" stroke="red" cx="27" cy="-18" rx="27" ry="18"/>
<text text-anchor="middle" x="27" y="-14.3" font-family="Times,serif" font-size="14.00">5</text>
</g>
<!-- N140465684075920&#45;&gt;N140465684076240 -->
<g id="edge1" class="edge"><title>N140465684075920&#45;&gt;N140465684076240</title>
<path fill="none" stroke="black" d="M27,-71.6966C27,-63.9827 27,-54.7125 27,-46.1124"/>
<polygon fill="black" stroke="black" points="30.5001,-46.1043 27,-36.1043 23.5001,-46.1044 30.5001,-46.1043"/>
</g>
<!-- N140465684076112 -->
<g id="node7" class="node"><title>N140465684076112</title>
<ellipse fill="none" stroke="black" cx="171" cy="-90" rx="27" ry="18"/>
<text text-anchor="middle" x="171" y="-86.3" font-family="Times,serif" font-size="14.00">15</text>
</g>
<!-- N140465684076432&#45;&gt;N140465684076112 -->
<g id="edge5" class="edge"><title>N140465684076432&#45;&gt;N140465684076112</title>
<path fill="none" stroke="black" d="M171,-143.697C171,-135.983 171,-126.712 171,-118.112"/>
<polygon fill="black" stroke="black" points="174.5,-118.104 171,-108.104 167.5,-118.104 174.5,-118.104"/>
</g>
<!-- N140465684076368 -->
<g id="node8" class="node"><title>N140465684076368</title>
<ellipse fill="none" stroke="black" cx="243" cy="-90" rx="27" ry="18"/>
<text text-anchor="middle" x="243" y="-86.3" font-family="Times,serif" font-size="14.00">18</text>
</g>
<!-- N140465684076432&#45;&gt;N140465684076368 -->
<g id="edge7" class="edge"><title>N140465684076432&#45;&gt;N140465684076368</title>
<path fill="none" stroke="black" d="M185.57,-146.834C195.75,-136.938 209.524,-123.546 221.031,-112.359"/>
<polygon fill="black" stroke="black" points="223.474,-114.865 228.204,-105.385 218.595,-109.846 223.474,-114.865"/>
</g>
<!-- N140465684076496 -->
<g id="node9" class="node"><title>N140465684076496</title>
<ellipse fill="none" stroke="red" cx="243" cy="-18" rx="27" ry="18"/>
<text text-anchor="middle" x="243" y="-14.3" font-family="Times,serif" font-size="14.00">17</text>
</g>
<!-- N140465684076368&#45;&gt;N140465684076496 -->
<g id="edge6" class="edge"><title>N140465684076368&#45;&gt;N140465684076496</title>
<path fill="none" stroke="black" d="M243,-71.6966C243,-63.9827 243,-54.7125 243,-46.1124"/>
<polygon fill="black" stroke="black" points="246.5,-46.1043 243,-36.1043 239.5,-46.1044 246.5,-46.1043"/>
</g>
</g>
</svg>
