<?xml version="1.0" encoding="UTF-8" standalone="no"?>
<!DOCTYPE svg PUBLIC "-//W3C//DTD SVG 1.1//EN"
 "http://www.w3.org/Graphics/SVG/1.1/DTD/svg11.dtd">
<!-- Generated by graphviz version 2.36.0 (20140111.2315)
 -->
<!-- Title: red_black_tree Pages: 1 -->
<svg width="314pt" height="260pt"
 viewBox="0.00 0.00 314.00 260.00" xmlns="http://www.w3.org/2000/svg" xmlns:xlink="http://www.w3.org/1999/xlink">
<g id="graph0" class="graph" transform="scale(1 1) rotate(0) translate(4 256)">
<title>red_black_tree</title>
<polygon fill="white" stroke="none" points="-4,4 -4,-256 310,-256 310,4 -4,4"/>
<!-- N140465684076304 -->
<g id="node1" class="node"><title>N140465684076304</title>
<ellipse fill="none" stroke="black" cx="171" cy="-234" rx="27" ry="18"/>
<text text-anchor="middle" x="171" y="-230.3" font-family="Times,serif" font-size="14.00">14</text>
</g>
<!-- N140465684075984 -->
<g id="node2" class="node"><title>N140465684075984</title>
<ellipse fill="none" stroke="red" cx="135" cy="-162" rx="27" ry="18"/>
<text text-anchor="middle" x="135" y="-158.3" font-family="Times,serif" font-size="14.00">7</text>
</g>
<!-- N140465684076304&#45;&gt;N140465684075984 -->
<g id="edge5" class="edge"><title>N140465684076304&#45;&gt;N140465684075984</title>
<path fill="none" stroke="black" d="M162.65,-216.765C158.288,-208.283 152.853,-197.714 147.959,-188.197"/>
<polygon fill="black" stroke="black" points="150.99,-186.439 143.304,-179.147 144.765,-189.641 150.99,-186.439"/>
</g>
<!-- N140465684076432 -->
<g id="node7" class="node"><title>N140465684076432</title>
<ellipse fill="none" stroke="red" cx="207" cy="-162" rx="27" ry="18"/>
<text text-anchor="middle" x="207" y="-158.3" font-family="Times,serif" font-size="14.00">16</text>
</g>
<!-- N140465684076304&#45;&gt;N140465684076432 -->
<g id="edge9" class="edge"><title>N140465684076304&#45;&gt;N140465684076432</title>
<path fill="none" stroke="black" d="M179.35,-216.765C183.712,-208.283 189.147,-197.714 194.041,-188.197"/>
<polygon fill="black" stroke="black" points="197.235,-189.641 198.696,-179.147 191.01,-186.439 197.235,-189.641"/>
</g>
<!-- N140465684075920 -->
<g id="node3" class="node"><title>N140465684075920</title>
<ellipse fill="none" stroke="black" cx="63" cy="-90" rx="27" ry="18"/>
<text text-anchor="middle" x="63" y="-86.3" font-family="Times,serif" font-size="14.00">4</text>
</g>
<!-- N140465684075984&#45;&gt;N140465684075920 -->
<g id="edge3" class="edge"><title>N140465684075984&#45;&gt;N140465684075920</title>
<path fill="none" stroke="black" d="M120.43,-146.834C110.25,-136.938 96.4761,-123.546 84.9694,-112.359"/>
<polygon fill="black" stroke="black" points="87.4055,-109.846 77.7957,-105.385 82.5259,-114.865 87.4055,-109.846"/>
</g>
<!-- N140465684076048 -->
<g id="node6" class="node"><title>N140465684076048</title>
<ellipse fill="none" stroke="black" cx="135" cy="-90" rx="27" ry="18"/>
<text text-anchor="middle" x="135" y="-86.3" font-family="Times,serif" font-size="14.00">12</text>
</g>
<!-- N140465684075984&#45;&gt;N140465684076048 -->
<g id="edge4" class="edge"><title>N140465684075984&#45;&gt;N140465684076048</title>
<path fill="none" stroke="black" d="M135,-143.697C135,-135.983 135,-126.712 135,-118.112"/>
<polygon fill="black" stroke="black" points="138.5,-118.104 135,-108.104 131.5,-118.104 138.5,-118.104"/>
</g>
<!-- N140465684076176 -->
<g id="node4" class="node"><title>N140465684076176</title>
<ellipse fill="none" stroke="red" cx="27" cy="-18" rx="27" ry="18"/>
<text text-anchor="middle" x="27" y="-14.3" font-family="Times,serif" font-size="14.00">3</text>
</g>
<!-- N140465684075920&#45;&gt;N140465684076176 -->
<g id="edge1" class="edge"><title>N140465684075920&#45;&gt;N140465684076176</title>
<path fill="none" stroke="black" d="M54.6504,-72.7646C50.2885,-64.2831 44.8531,-53.7144 39.9587,-44.1974"/>
<polygon fill="black" stroke="black" points="42.9904,-42.4395 35.3043,-35.1473 36.7654,-45.6409 42.9904,-42.4395"/>
</g>
<!-- N140465684076240 -->
<g id="node5" class="node"><title>N140465684076240</title>
<ellipse fill="none" stroke="red" cx="99" cy="-18" rx="27" ry="18"/>
<text text-anchor="middle" x="99" y="-14.3" font-family="Times,serif" font-size="14.00">5</text>
</g>
<!-- N140465684075920&#45;&gt;N140465684076240 -->
<g id="edge2" class="edge"><title>N140465684075920&#45;&gt;N140465684076240</title>
<path fill="none" stroke="black" d="M71.3496,-72.7646C75.7115,-64.2831 81.1469,-53.7144 86.0413,-44.1974"/>
<polygon fill="black" stroke="black" points="89.2346,-45.6409 90.6957,-35.1473 83.0096,-42.4395 89.2346,-45.6409"/>
</g>
<!-- N140465684076112 -->
<g id="node8" class="node"><title>N140465684076112</title>
<ellipse fill="none" stroke="black" cx="207" cy="-90" rx="27" ry="18"/>
<text text-anchor="middle" x="207" y="-86.3" font-family="Times,serif" font-size="14.00">15</text>
</g>
<!-- N140465684076432&#45;&gt;N140465684076112 -->
<g id="edge6" class="edge"><title>N140465684076432&#45;&gt;N140465684076112</title>
<path fill="none" stroke="black" d="M207,-143.697C207,-135.983 207,-126.712 207,-118.112"/>
<polygon fill="black" stroke="black" points="210.5,-118.104 207,-108.104 203.5,-118.104 210.5,-118.104"/>
</g>
<!-- N140465684076368 -->
<g id="node9" class="node"><title>N140465684076368</title>
<ellipse fill="none" stroke="black" cx="279" cy="-90" rx="27" ry="18"/>
<text text-anchor="middle" x="279" y="-86.3" font-family="Times,serif" font-size="14.00">18</text>
</g>
<!-- N140465684076432&#45;&gt;N140465684076368 -->
<g id="edge8" class="edge"><title>N140465684076432&#45;&gt;N140465684076368</title>
<path fill="none" stroke="black" d="M221.57,-146.834C231.75,-136.938 245.524,-123.546 257.031,-112.359"/>
<polygon fill="black" stroke="black" points="259.474,-114.865 264.204,-105.385 254.595,-109.846 259.474,-114.865"/>
</g>
<!-- N140465684076496 -->
<g id="node10" class="node"><title>N140465684076496</title>
<ellipse fill="none" stroke="red" cx="279" cy="-18" rx="27" ry="18"/>
<text text-anchor="middle" x="279" y="-14.3" font-family="Times,serif" font-size="14.00">17</text>
</g>
<!-- N140465684076368&#45;&gt;N140465684076496 -->
<g id="edge7" class="edge"><title>N140465684076368&#45;&gt;N140465684076496</title>
<path fill="none" stroke="black" d="M279,-71.6966C279,-63.9827 279,-54.7125 279,-46.1124"/>
<polygon fill="black" stroke="black" points="282.5,-46.1043 279,-36.1043 275.5,-46.1044 282.5,-46.1043"/>
</g>
</g>
</svg>
