<?xml version="1.0" encoding="UTF-8" standalone="no"?>
<!DOCTYPE svg PUBLIC "-//W3C//DTD SVG 1.1//EN"
 "http://www.w3.org/Graphics/SVG/1.1/DTD/svg11.dtd">
<!-- Generated by graphviz version 2.36.0 (20140111.2315)
 -->
<!-- Title: red_black_tree Pages: 1 -->
<svg width="1430pt" height="476pt"
 viewBox="0.00 0.00 1430.00 476.00" xmlns="http://www.w3.org/2000/svg" xmlns:xlink="http://www.w3.org/1999/xlink">
<g id="graph0" class="graph" transform="scale(1 1) rotate(0) translate(4 472)">
<title>red_black_tree</title>
<polygon fill="white" stroke="none" points="-4,4 -4,-472 1426,-472 1426,4 -4,4"/>
<!-- N140522431954192 -->
<g id="node1" class="node"><title>N140522431954192</title>
<ellipse fill="none" stroke="black" cx="711" cy="-450" rx="27" ry="18"/>
<text text-anchor="middle" x="711" y="-446.3" font-family="Times,serif" font-size="14.00">13</text>
</g>
<!-- N140522431953296 -->
<g id="node2" class="node"><title>N140522431953296</title>
<ellipse fill="none" stroke="black" cx="567" cy="-378" rx="27" ry="18"/>
<text text-anchor="middle" x="567" y="-374.3" font-family="Times,serif" font-size="14.00">&#45;10</text>
</g>
<!-- N140522431954192&#45;&gt;N140522431953296 -->
<g id="edge28" class="edge"><title>N140522431954192&#45;&gt;N140522431953296</title>
<path fill="none" stroke="black" d="M689.752,-438.671C665.398,-426.832 625.281,-407.331 597.572,-393.862"/>
<polygon fill="black" stroke="black" points="598.859,-390.595 588.335,-389.371 595.798,-396.891 598.859,-390.595"/>
</g>
<!-- N140522431953424 -->
<g id="node30" class="node"><title>N140522431953424</title>
<ellipse fill="none" stroke="black" cx="855" cy="-378" rx="27" ry="18"/>
<text text-anchor="middle" x="855" y="-374.3" font-family="Times,serif" font-size="14.00">22</text>
</g>
<!-- N140522431954192&#45;&gt;N140522431953424 -->
<g id="edge49" class="edge"><title>N140522431954192&#45;&gt;N140522431953424</title>
<path fill="none" stroke="black" d="M732.248,-438.671C756.602,-426.832 796.719,-407.331 824.428,-393.862"/>
<polygon fill="black" stroke="black" points="826.202,-396.891 833.665,-389.371 823.141,-390.595 826.202,-396.891"/>
</g>
<!-- N140522431954256 -->
<g id="node3" class="node"><title>N140522431954256</title>
<ellipse fill="none" stroke="red" cx="351" cy="-306" rx="27" ry="18"/>
<text text-anchor="middle" x="351" y="-302.3" font-family="Times,serif" font-size="14.00">&#45;19</text>
</g>
<!-- N140522431953296&#45;&gt;N140522431954256 -->
<g id="edge15" class="edge"><title>N140522431953296&#45;&gt;N140522431954256</title>
<path fill="none" stroke="black" d="M543.059,-369.241C504.438,-356.725 428.285,-332.046 384.363,-317.812"/>
<polygon fill="black" stroke="black" points="385.311,-314.44 374.719,-314.687 383.153,-321.099 385.311,-314.44"/>
</g>
<!-- N140522431954128 -->
<g id="node18" class="node"><title>N140522431954128</title>
<ellipse fill="none" stroke="red" cx="567" cy="-306" rx="27" ry="18"/>
<text text-anchor="middle" x="567" y="-302.3" font-family="Times,serif" font-size="14.00">&#45;3</text>
</g>
<!-- N140522431953296&#45;&gt;N140522431954128 -->
<g id="edge27" class="edge"><title>N140522431953296&#45;&gt;N140522431954128</title>
<path fill="none" stroke="black" d="M567,-359.697C567,-351.983 567,-342.712 567,-334.112"/>
<polygon fill="black" stroke="black" points="570.5,-334.104 567,-324.104 563.5,-334.104 570.5,-334.104"/>
</g>
<!-- N140522431953360 -->
<g id="node4" class="node"><title>N140522431953360</title>
<ellipse fill="none" stroke="black" cx="171" cy="-234" rx="27" ry="18"/>
<text text-anchor="middle" x="171" y="-230.3" font-family="Times,serif" font-size="14.00">&#45;35</text>
</g>
<!-- N140522431954256&#45;&gt;N140522431953360 -->
<g id="edge7" class="edge"><title>N140522431954256&#45;&gt;N140522431953360</title>
<path fill="none" stroke="black" d="M328.203,-296.134C296.641,-283.86 239.461,-261.624 203.452,-247.62"/>
<polygon fill="black" stroke="black" points="204.484,-244.266 193.896,-243.904 201.947,-250.79 204.484,-244.266"/>
</g>
<!-- N140522431954448 -->
<g id="node11" class="node"><title>N140522431954448</title>
<ellipse fill="none" stroke="black" cx="351" cy="-234" rx="27" ry="18"/>
<text text-anchor="middle" x="351" y="-230.3" font-family="Times,serif" font-size="14.00">&#45;13</text>
</g>
<!-- N140522431954256&#45;&gt;N140522431954448 -->
<g id="edge14" class="edge"><title>N140522431954256&#45;&gt;N140522431954448</title>
<path fill="none" stroke="black" d="M351,-287.697C351,-279.983 351,-270.712 351,-262.112"/>
<polygon fill="black" stroke="black" points="354.5,-262.104 351,-252.104 347.5,-262.104 354.5,-262.104"/>
</g>
<!-- N140522431616016 -->
<g id="node5" class="node"><title>N140522431616016</title>
<ellipse fill="none" stroke="red" cx="99" cy="-162" rx="27" ry="18"/>
<text text-anchor="middle" x="99" y="-158.3" font-family="Times,serif" font-size="14.00">&#45;46</text>
</g>
<!-- N140522431953360&#45;&gt;N140522431616016 -->
<g id="edge4" class="edge"><title>N140522431953360&#45;&gt;N140522431616016</title>
<path fill="none" stroke="black" d="M156.43,-218.834C146.25,-208.938 132.476,-195.546 120.969,-184.359"/>
<polygon fill="black" stroke="black" points="123.405,-181.846 113.796,-177.385 118.526,-186.865 123.405,-181.846"/>
</g>
<!-- N140522431953488 -->
<g id="node9" class="node"><title>N140522431953488</title>
<ellipse fill="none" stroke="black" cx="171" cy="-162" rx="27" ry="18"/>
<text text-anchor="middle" x="171" y="-158.3" font-family="Times,serif" font-size="14.00">&#45;28</text>
</g>
<!-- N140522431953360&#45;&gt;N140522431953488 -->
<g id="edge6" class="edge"><title>N140522431953360&#45;&gt;N140522431953488</title>
<path fill="none" stroke="black" d="M171,-215.697C171,-207.983 171,-198.712 171,-190.112"/>
<polygon fill="black" stroke="black" points="174.5,-190.104 171,-180.104 167.5,-190.104 174.5,-190.104"/>
</g>
<!-- N140522431954640 -->
<g id="node6" class="node"><title>N140522431954640</title>
<ellipse fill="none" stroke="black" cx="27" cy="-90" rx="27" ry="18"/>
<text text-anchor="middle" x="27" y="-86.3" font-family="Times,serif" font-size="14.00">&#45;46</text>
</g>
<!-- N140522431616016&#45;&gt;N140522431954640 -->
<g id="edge1" class="edge"><title>N140522431616016&#45;&gt;N140522431954640</title>
<path fill="none" stroke="black" d="M84.4297,-146.834C74.2501,-136.938 60.4761,-123.546 48.9694,-112.359"/>
<polygon fill="black" stroke="black" points="51.4055,-109.846 41.7957,-105.385 46.5259,-114.865 51.4055,-109.846"/>
</g>
<!-- N140522431953744 -->
<g id="node7" class="node"><title>N140522431953744</title>
<ellipse fill="none" stroke="black" cx="99" cy="-90" rx="27" ry="18"/>
<text text-anchor="middle" x="99" y="-86.3" font-family="Times,serif" font-size="14.00">&#45;43</text>
</g>
<!-- N140522431616016&#45;&gt;N140522431953744 -->
<g id="edge3" class="edge"><title>N140522431616016&#45;&gt;N140522431953744</title>
<path fill="none" stroke="black" d="M99,-143.697C99,-135.983 99,-126.712 99,-118.112"/>
<polygon fill="black" stroke="black" points="102.5,-118.104 99,-108.104 95.5001,-118.104 102.5,-118.104"/>
</g>
<!-- N140522431616464 -->
<g id="node8" class="node"><title>N140522431616464</title>
<ellipse fill="none" stroke="red" cx="99" cy="-18" rx="27" ry="18"/>
<text text-anchor="middle" x="99" y="-14.3" font-family="Times,serif" font-size="14.00">&#45;42</text>
</g>
<!-- N140522431953744&#45;&gt;N140522431616464 -->
<g id="edge2" class="edge"><title>N140522431953744&#45;&gt;N140522431616464</title>
<path fill="none" stroke="black" d="M99,-71.6966C99,-63.9827 99,-54.7125 99,-46.1124"/>
<polygon fill="black" stroke="black" points="102.5,-46.1043 99,-36.1043 95.5001,-46.1044 102.5,-46.1043"/>
</g>
<!-- N140522431954384 -->
<g id="node10" class="node"><title>N140522431954384</title>
<ellipse fill="none" stroke="red" cx="171" cy="-90" rx="27" ry="18"/>
<text text-anchor="middle" x="171" y="-86.3" font-family="Times,serif" font-size="14.00">&#45;30</text>
</g>
<!-- N140522431953488&#45;&gt;N140522431954384 -->
<g id="edge5" class="edge"><title>N140522431953488&#45;&gt;N140522431954384</title>
<path fill="none" stroke="black" d="M171,-143.697C171,-135.983 171,-126.712 171,-118.112"/>
<polygon fill="black" stroke="black" points="174.5,-118.104 171,-108.104 167.5,-118.104 174.5,-118.104"/>
</g>
<!-- N140522431954896 -->
<g id="node12" class="node"><title>N140522431954896</title>
<ellipse fill="none" stroke="black" cx="315" cy="-162" rx="27" ry="18"/>
<text text-anchor="middle" x="315" y="-158.3" font-family="Times,serif" font-size="14.00">&#45;17</text>
</g>
<!-- N140522431954448&#45;&gt;N140522431954896 -->
<g id="edge10" class="edge"><title>N140522431954448&#45;&gt;N140522431954896</title>
<path fill="none" stroke="black" d="M342.65,-216.765C338.288,-208.283 332.853,-197.714 327.959,-188.197"/>
<polygon fill="black" stroke="black" points="330.99,-186.439 323.304,-179.147 324.765,-189.641 330.99,-186.439"/>
</g>
<!-- N140522431954512 -->
<g id="node15" class="node"><title>N140522431954512</title>
<ellipse fill="none" stroke="black" cx="387" cy="-162" rx="27" ry="18"/>
<text text-anchor="middle" x="387" y="-158.3" font-family="Times,serif" font-size="14.00">&#45;11</text>
</g>
<!-- N140522431954448&#45;&gt;N140522431954512 -->
<g id="edge13" class="edge"><title>N140522431954448&#45;&gt;N140522431954512</title>
<path fill="none" stroke="black" d="M359.35,-216.765C363.712,-208.283 369.147,-197.714 374.041,-188.197"/>
<polygon fill="black" stroke="black" points="377.235,-189.641 378.696,-179.147 371.01,-186.439 377.235,-189.641"/>
</g>
<!-- N140522431615632 -->
<g id="node13" class="node"><title>N140522431615632</title>
<ellipse fill="none" stroke="red" cx="243" cy="-90" rx="27" ry="18"/>
<text text-anchor="middle" x="243" y="-86.3" font-family="Times,serif" font-size="14.00">&#45;19</text>
</g>
<!-- N140522431954896&#45;&gt;N140522431615632 -->
<g id="edge8" class="edge"><title>N140522431954896&#45;&gt;N140522431615632</title>
<path fill="none" stroke="black" d="M300.43,-146.834C290.25,-136.938 276.476,-123.546 264.969,-112.359"/>
<polygon fill="black" stroke="black" points="267.405,-109.846 257.796,-105.385 262.526,-114.865 267.405,-109.846"/>
</g>
<!-- N140522431953808 -->
<g id="node14" class="node"><title>N140522431953808</title>
<ellipse fill="none" stroke="red" cx="315" cy="-90" rx="27" ry="18"/>
<text text-anchor="middle" x="315" y="-86.3" font-family="Times,serif" font-size="14.00">&#45;16</text>
</g>
<!-- N140522431954896&#45;&gt;N140522431953808 -->
<g id="edge9" class="edge"><title>N140522431954896&#45;&gt;N140522431953808</title>
<path fill="none" stroke="black" d="M315,-143.697C315,-135.983 315,-126.712 315,-118.112"/>
<polygon fill="black" stroke="black" points="318.5,-118.104 315,-108.104 311.5,-118.104 318.5,-118.104"/>
</g>
<!-- N140522431954832 -->
<g id="node16" class="node"><title>N140522431954832</title>
<ellipse fill="none" stroke="red" cx="387" cy="-90" rx="27" ry="18"/>
<text text-anchor="middle" x="387" y="-86.3" font-family="Times,serif" font-size="14.00">&#45;12</text>
</g>
<!-- N140522431954512&#45;&gt;N140522431954832 -->
<g id="edge11" class="edge"><title>N140522431954512&#45;&gt;N140522431954832</title>
<path fill="none" stroke="black" d="M387,-143.697C387,-135.983 387,-126.712 387,-118.112"/>
<polygon fill="black" stroke="black" points="390.5,-118.104 387,-108.104 383.5,-118.104 390.5,-118.104"/>
</g>
<!-- N140522431616336 -->
<g id="node17" class="node"><title>N140522431616336</title>
<ellipse fill="none" stroke="red" cx="459" cy="-90" rx="27" ry="18"/>
<text text-anchor="middle" x="459" y="-86.3" font-family="Times,serif" font-size="14.00">&#45;11</text>
</g>
<!-- N140522431954512&#45;&gt;N140522431616336 -->
<g id="edge12" class="edge"><title>N140522431954512&#45;&gt;N140522431616336</title>
<path fill="none" stroke="black" d="M401.57,-146.834C411.75,-136.938 425.524,-123.546 437.031,-112.359"/>
<polygon fill="black" stroke="black" points="439.474,-114.865 444.204,-105.385 434.595,-109.846 439.474,-114.865"/>
</g>
<!-- N140522431953552 -->
<g id="node19" class="node"><title>N140522431953552</title>
<ellipse fill="none" stroke="black" cx="531" cy="-234" rx="27" ry="18"/>
<text text-anchor="middle" x="531" y="-230.3" font-family="Times,serif" font-size="14.00">&#45;7</text>
</g>
<!-- N140522431954128&#45;&gt;N140522431953552 -->
<g id="edge19" class="edge"><title>N140522431954128&#45;&gt;N140522431953552</title>
<path fill="none" stroke="black" d="M558.65,-288.765C554.288,-280.283 548.853,-269.714 543.959,-260.197"/>
<polygon fill="black" stroke="black" points="546.99,-258.439 539.304,-251.147 540.765,-261.641 546.99,-258.439"/>
</g>
<!-- N140522431954768 -->
<g id="node23" class="node"><title>N140522431954768</title>
<ellipse fill="none" stroke="black" cx="603" cy="-234" rx="27" ry="18"/>
<text text-anchor="middle" x="603" y="-230.3" font-family="Times,serif" font-size="14.00">1</text>
</g>
<!-- N140522431954128&#45;&gt;N140522431954768 -->
<g id="edge26" class="edge"><title>N140522431954128&#45;&gt;N140522431954768</title>
<path fill="none" stroke="black" d="M575.35,-288.765C579.712,-280.283 585.147,-269.714 590.041,-260.197"/>
<polygon fill="black" stroke="black" points="593.235,-261.641 594.696,-251.147 587.01,-258.439 593.235,-261.641"/>
</g>
<!-- N140522431954704 -->
<g id="node20" class="node"><title>N140522431954704</title>
<ellipse fill="none" stroke="black" cx="459" cy="-162" rx="27" ry="18"/>
<text text-anchor="middle" x="459" y="-158.3" font-family="Times,serif" font-size="14.00">&#45;8</text>
</g>
<!-- N140522431953552&#45;&gt;N140522431954704 -->
<g id="edge16" class="edge"><title>N140522431953552&#45;&gt;N140522431954704</title>
<path fill="none" stroke="black" d="M516.43,-218.834C506.25,-208.938 492.476,-195.546 480.969,-184.359"/>
<polygon fill="black" stroke="black" points="483.405,-181.846 473.796,-177.385 478.526,-186.865 483.405,-181.846"/>
</g>
<!-- N140522431615376 -->
<g id="node21" class="node"><title>N140522431615376</title>
<ellipse fill="none" stroke="black" cx="531" cy="-162" rx="27" ry="18"/>
<text text-anchor="middle" x="531" y="-158.3" font-family="Times,serif" font-size="14.00">&#45;4</text>
</g>
<!-- N140522431953552&#45;&gt;N140522431615376 -->
<g id="edge18" class="edge"><title>N140522431953552&#45;&gt;N140522431615376</title>
<path fill="none" stroke="black" d="M531,-215.697C531,-207.983 531,-198.712 531,-190.112"/>
<polygon fill="black" stroke="black" points="534.5,-190.104 531,-180.104 527.5,-190.104 534.5,-190.104"/>
</g>
<!-- N140522431616400 -->
<g id="node22" class="node"><title>N140522431616400</title>
<ellipse fill="none" stroke="red" cx="531" cy="-90" rx="27" ry="18"/>
<text text-anchor="middle" x="531" y="-86.3" font-family="Times,serif" font-size="14.00">&#45;4</text>
</g>
<!-- N140522431615376&#45;&gt;N140522431616400 -->
<g id="edge17" class="edge"><title>N140522431615376&#45;&gt;N140522431616400</title>
<path fill="none" stroke="black" d="M531,-143.697C531,-135.983 531,-126.712 531,-118.112"/>
<polygon fill="black" stroke="black" points="534.5,-118.104 531,-108.104 527.5,-118.104 534.5,-118.104"/>
</g>
<!-- N140522431616272 -->
<g id="node24" class="node"><title>N140522431616272</title>
<ellipse fill="none" stroke="red" cx="603" cy="-162" rx="27" ry="18"/>
<text text-anchor="middle" x="603" y="-158.3" font-family="Times,serif" font-size="14.00">&#45;1</text>
</g>
<!-- N140522431954768&#45;&gt;N140522431616272 -->
<g id="edge23" class="edge"><title>N140522431954768&#45;&gt;N140522431616272</title>
<path fill="none" stroke="black" d="M603,-215.697C603,-207.983 603,-198.712 603,-190.112"/>
<polygon fill="black" stroke="black" points="606.5,-190.104 603,-180.104 599.5,-190.104 606.5,-190.104"/>
</g>
<!-- N140522431615056 -->
<g id="node28" class="node"><title>N140522431615056</title>
<ellipse fill="none" stroke="black" cx="675" cy="-162" rx="27" ry="18"/>
<text text-anchor="middle" x="675" y="-158.3" font-family="Times,serif" font-size="14.00">8</text>
</g>
<!-- N140522431954768&#45;&gt;N140522431615056 -->
<g id="edge25" class="edge"><title>N140522431954768&#45;&gt;N140522431615056</title>
<path fill="none" stroke="black" d="M617.57,-218.834C627.75,-208.938 641.524,-195.546 653.031,-184.359"/>
<polygon fill="black" stroke="black" points="655.474,-186.865 660.204,-177.385 650.595,-181.846 655.474,-186.865"/>
</g>
<!-- N140522431953872 -->
<g id="node25" class="node"><title>N140522431953872</title>
<ellipse fill="none" stroke="black" cx="603" cy="-90" rx="27" ry="18"/>
<text text-anchor="middle" x="603" y="-86.3" font-family="Times,serif" font-size="14.00">&#45;1</text>
</g>
<!-- N140522431616272&#45;&gt;N140522431953872 -->
<g id="edge20" class="edge"><title>N140522431616272&#45;&gt;N140522431953872</title>
<path fill="none" stroke="black" d="M603,-143.697C603,-135.983 603,-126.712 603,-118.112"/>
<polygon fill="black" stroke="black" points="606.5,-118.104 603,-108.104 599.5,-118.104 606.5,-118.104"/>
</g>
<!-- N140522431615952 -->
<g id="node26" class="node"><title>N140522431615952</title>
<ellipse fill="none" stroke="black" cx="675" cy="-90" rx="27" ry="18"/>
<text text-anchor="middle" x="675" y="-86.3" font-family="Times,serif" font-size="14.00">0</text>
</g>
<!-- N140522431616272&#45;&gt;N140522431615952 -->
<g id="edge22" class="edge"><title>N140522431616272&#45;&gt;N140522431615952</title>
<path fill="none" stroke="black" d="M617.57,-146.834C627.75,-136.938 641.524,-123.546 653.031,-112.359"/>
<polygon fill="black" stroke="black" points="655.474,-114.865 660.204,-105.385 650.595,-109.846 655.474,-114.865"/>
</g>
<!-- N140522431616528 -->
<g id="node27" class="node"><title>N140522431616528</title>
<ellipse fill="none" stroke="red" cx="675" cy="-18" rx="27" ry="18"/>
<text text-anchor="middle" x="675" y="-14.3" font-family="Times,serif" font-size="14.00">0</text>
</g>
<!-- N140522431615952&#45;&gt;N140522431616528 -->
<g id="edge21" class="edge"><title>N140522431615952&#45;&gt;N140522431616528</title>
<path fill="none" stroke="black" d="M675,-71.6966C675,-63.9827 675,-54.7125 675,-46.1124"/>
<polygon fill="black" stroke="black" points="678.5,-46.1043 675,-36.1043 671.5,-46.1044 678.5,-46.1043"/>
</g>
<!-- N140522431615824 -->
<g id="node29" class="node"><title>N140522431615824</title>
<ellipse fill="none" stroke="red" cx="747" cy="-90" rx="27" ry="18"/>
<text text-anchor="middle" x="747" y="-86.3" font-family="Times,serif" font-size="14.00">2</text>
</g>
<!-- N140522431615056&#45;&gt;N140522431615824 -->
<g id="edge24" class="edge"><title>N140522431615056&#45;&gt;N140522431615824</title>
<path fill="none" stroke="black" d="M689.57,-146.834C699.75,-136.938 713.524,-123.546 725.031,-112.359"/>
<polygon fill="black" stroke="black" points="727.474,-114.865 732.204,-105.385 722.595,-109.846 727.474,-114.865"/>
</g>
<!-- N140522431615120 -->
<g id="node31" class="node"><title>N140522431615120</title>
<ellipse fill="none" stroke="black" cx="855" cy="-306" rx="27" ry="18"/>
<text text-anchor="middle" x="855" y="-302.3" font-family="Times,serif" font-size="14.00">17</text>
</g>
<!-- N140522431953424&#45;&gt;N140522431615120 -->
<g id="edge35" class="edge"><title>N140522431953424&#45;&gt;N140522431615120</title>
<path fill="none" stroke="black" d="M855,-359.697C855,-351.983 855,-342.712 855,-334.112"/>
<polygon fill="black" stroke="black" points="858.5,-334.104 855,-324.104 851.5,-334.104 858.5,-334.104"/>
</g>
<!-- N140522431953616 -->
<g id="node38" class="node"><title>N140522431953616</title>
<ellipse fill="none" stroke="black" cx="1071" cy="-306" rx="27" ry="18"/>
<text text-anchor="middle" x="1071" y="-302.3" font-family="Times,serif" font-size="14.00">32</text>
</g>
<!-- N140522431953424&#45;&gt;N140522431953616 -->
<g id="edge48" class="edge"><title>N140522431953424&#45;&gt;N140522431953616</title>
<path fill="none" stroke="black" d="M878.941,-369.241C917.562,-356.725 993.715,-332.046 1037.64,-317.812"/>
<polygon fill="black" stroke="black" points="1038.85,-321.099 1047.28,-314.687 1036.69,-314.44 1038.85,-321.099"/>
</g>
<!-- N140522431615696 -->
<g id="node32" class="node"><title>N140522431615696</title>
<ellipse fill="none" stroke="black" cx="819" cy="-234" rx="27" ry="18"/>
<text text-anchor="middle" x="819" y="-230.3" font-family="Times,serif" font-size="14.00">16</text>
</g>
<!-- N140522431615120&#45;&gt;N140522431615696 -->
<g id="edge31" class="edge"><title>N140522431615120&#45;&gt;N140522431615696</title>
<path fill="none" stroke="black" d="M846.65,-288.765C842.288,-280.283 836.853,-269.714 831.959,-260.197"/>
<polygon fill="black" stroke="black" points="834.99,-258.439 827.304,-251.147 828.765,-261.641 834.99,-258.439"/>
</g>
<!-- N140522431615184 -->
<g id="node35" class="node"><title>N140522431615184</title>
<ellipse fill="none" stroke="black" cx="891" cy="-234" rx="27" ry="18"/>
<text text-anchor="middle" x="891" y="-230.3" font-family="Times,serif" font-size="14.00">19</text>
</g>
<!-- N140522431615120&#45;&gt;N140522431615184 -->
<g id="edge34" class="edge"><title>N140522431615120&#45;&gt;N140522431615184</title>
<path fill="none" stroke="black" d="M863.35,-288.765C867.712,-280.283 873.147,-269.714 878.041,-260.197"/>
<polygon fill="black" stroke="black" points="881.235,-261.641 882.696,-251.147 875.01,-258.439 881.235,-261.641"/>
</g>
<!-- N140522431616144 -->
<g id="node33" class="node"><title>N140522431616144</title>
<ellipse fill="none" stroke="red" cx="747" cy="-162" rx="27" ry="18"/>
<text text-anchor="middle" x="747" y="-158.3" font-family="Times,serif" font-size="14.00">13</text>
</g>
<!-- N140522431615696&#45;&gt;N140522431616144 -->
<g id="edge29" class="edge"><title>N140522431615696&#45;&gt;N140522431616144</title>
<path fill="none" stroke="black" d="M804.43,-218.834C794.25,-208.938 780.476,-195.546 768.969,-184.359"/>
<polygon fill="black" stroke="black" points="771.405,-181.846 761.796,-177.385 766.526,-186.865 771.405,-181.846"/>
</g>
<!-- N140522431954576 -->
<g id="node34" class="node"><title>N140522431954576</title>
<ellipse fill="none" stroke="red" cx="819" cy="-162" rx="27" ry="18"/>
<text text-anchor="middle" x="819" y="-158.3" font-family="Times,serif" font-size="14.00">17</text>
</g>
<!-- N140522431615696&#45;&gt;N140522431954576 -->
<g id="edge30" class="edge"><title>N140522431615696&#45;&gt;N140522431954576</title>
<path fill="none" stroke="black" d="M819,-215.697C819,-207.983 819,-198.712 819,-190.112"/>
<polygon fill="black" stroke="black" points="822.5,-190.104 819,-180.104 815.5,-190.104 822.5,-190.104"/>
</g>
<!-- N140522431615312 -->
<g id="node36" class="node"><title>N140522431615312</title>
<ellipse fill="none" stroke="red" cx="891" cy="-162" rx="27" ry="18"/>
<text text-anchor="middle" x="891" y="-158.3" font-family="Times,serif" font-size="14.00">18</text>
</g>
<!-- N140522431615184&#45;&gt;N140522431615312 -->
<g id="edge32" class="edge"><title>N140522431615184&#45;&gt;N140522431615312</title>
<path fill="none" stroke="black" d="M891,-215.697C891,-207.983 891,-198.712 891,-190.112"/>
<polygon fill="black" stroke="black" points="894.5,-190.104 891,-180.104 887.5,-190.104 894.5,-190.104"/>
</g>
<!-- N140522431615440 -->
<g id="node37" class="node"><title>N140522431615440</title>
<ellipse fill="none" stroke="red" cx="963" cy="-162" rx="27" ry="18"/>
<text text-anchor="middle" x="963" y="-158.3" font-family="Times,serif" font-size="14.00">20</text>
</g>
<!-- N140522431615184&#45;&gt;N140522431615440 -->
<g id="edge33" class="edge"><title>N140522431615184&#45;&gt;N140522431615440</title>
<path fill="none" stroke="black" d="M905.57,-218.834C915.75,-208.938 929.524,-195.546 941.031,-184.359"/>
<polygon fill="black" stroke="black" points="943.474,-186.865 948.204,-177.385 938.595,-181.846 943.474,-186.865"/>
</g>
<!-- N140522431954000 -->
<g id="node39" class="node"><title>N140522431954000</title>
<ellipse fill="none" stroke="red" cx="1071" cy="-234" rx="27" ry="18"/>
<text text-anchor="middle" x="1071" y="-230.3" font-family="Times,serif" font-size="14.00">25</text>
</g>
<!-- N140522431953616&#45;&gt;N140522431954000 -->
<g id="edge40" class="edge"><title>N140522431953616&#45;&gt;N140522431954000</title>
<path fill="none" stroke="black" d="M1071,-287.697C1071,-279.983 1071,-270.712 1071,-262.112"/>
<polygon fill="black" stroke="black" points="1074.5,-262.104 1071,-252.104 1067.5,-262.104 1074.5,-262.104"/>
</g>
<!-- N140522431954320 -->
<g id="node44" class="node"><title>N140522431954320</title>
<ellipse fill="none" stroke="red" cx="1215" cy="-234" rx="27" ry="18"/>
<text text-anchor="middle" x="1215" y="-230.3" font-family="Times,serif" font-size="14.00">40</text>
</g>
<!-- N140522431953616&#45;&gt;N140522431954320 -->
<g id="edge47" class="edge"><title>N140522431953616&#45;&gt;N140522431954320</title>
<path fill="none" stroke="black" d="M1092.25,-294.671C1116.6,-282.832 1156.72,-263.331 1184.43,-249.862"/>
<polygon fill="black" stroke="black" points="1186.2,-252.891 1193.67,-245.371 1183.14,-246.595 1186.2,-252.891"/>
</g>
<!-- N140522431953680 -->
<g id="node40" class="node"><title>N140522431953680</title>
<ellipse fill="none" stroke="black" cx="1035" cy="-162" rx="27" ry="18"/>
<text text-anchor="middle" x="1035" y="-158.3" font-family="Times,serif" font-size="14.00">25</text>
</g>
<!-- N140522431954000&#45;&gt;N140522431953680 -->
<g id="edge36" class="edge"><title>N140522431954000&#45;&gt;N140522431953680</title>
<path fill="none" stroke="black" d="M1062.65,-216.765C1058.29,-208.283 1052.85,-197.714 1047.96,-188.197"/>
<polygon fill="black" stroke="black" points="1050.99,-186.439 1043.3,-179.147 1044.77,-189.641 1050.99,-186.439"/>
</g>
<!-- N140522431616208 -->
<g id="node41" class="node"><title>N140522431616208</title>
<ellipse fill="none" stroke="black" cx="1107" cy="-162" rx="27" ry="18"/>
<text text-anchor="middle" x="1107" y="-158.3" font-family="Times,serif" font-size="14.00">29</text>
</g>
<!-- N140522431954000&#45;&gt;N140522431616208 -->
<g id="edge39" class="edge"><title>N140522431954000&#45;&gt;N140522431616208</title>
<path fill="none" stroke="black" d="M1079.35,-216.765C1083.71,-208.283 1089.15,-197.714 1094.04,-188.197"/>
<polygon fill="black" stroke="black" points="1097.23,-189.641 1098.7,-179.147 1091.01,-186.439 1097.23,-189.641"/>
</g>
<!-- N140522431615888 -->
<g id="node42" class="node"><title>N140522431615888</title>
<ellipse fill="none" stroke="red" cx="1035" cy="-90" rx="27" ry="18"/>
<text text-anchor="middle" x="1035" y="-86.3" font-family="Times,serif" font-size="14.00">26</text>
</g>
<!-- N140522431616208&#45;&gt;N140522431615888 -->
<g id="edge37" class="edge"><title>N140522431616208&#45;&gt;N140522431615888</title>
<path fill="none" stroke="black" d="M1092.43,-146.834C1082.25,-136.938 1068.48,-123.546 1056.97,-112.359"/>
<polygon fill="black" stroke="black" points="1059.41,-109.846 1049.8,-105.385 1054.53,-114.865 1059.41,-109.846"/>
</g>
<!-- N140522431615760 -->
<g id="node43" class="node"><title>N140522431615760</title>
<ellipse fill="none" stroke="red" cx="1107" cy="-90" rx="27" ry="18"/>
<text text-anchor="middle" x="1107" y="-86.3" font-family="Times,serif" font-size="14.00">30</text>
</g>
<!-- N140522431616208&#45;&gt;N140522431615760 -->
<g id="edge38" class="edge"><title>N140522431616208&#45;&gt;N140522431615760</title>
<path fill="none" stroke="black" d="M1107,-143.697C1107,-135.983 1107,-126.712 1107,-118.112"/>
<polygon fill="black" stroke="black" points="1110.5,-118.104 1107,-108.104 1103.5,-118.104 1110.5,-118.104"/>
</g>
<!-- N140522431954064 -->
<g id="node45" class="node"><title>N140522431954064</title>
<ellipse fill="none" stroke="black" cx="1215" cy="-162" rx="27" ry="18"/>
<text text-anchor="middle" x="1215" y="-158.3" font-family="Times,serif" font-size="14.00">35</text>
</g>
<!-- N140522431954320&#45;&gt;N140522431954064 -->
<g id="edge43" class="edge"><title>N140522431954320&#45;&gt;N140522431954064</title>
<path fill="none" stroke="black" d="M1215,-215.697C1215,-207.983 1215,-198.712 1215,-190.112"/>
<polygon fill="black" stroke="black" points="1218.5,-190.104 1215,-180.104 1211.5,-190.104 1218.5,-190.104"/>
</g>
<!-- N140522431953936 -->
<g id="node48" class="node"><title>N140522431953936</title>
<ellipse fill="none" stroke="black" cx="1323" cy="-162" rx="27" ry="18"/>
<text text-anchor="middle" x="1323" y="-158.3" font-family="Times,serif" font-size="14.00">45</text>
</g>
<!-- N140522431954320&#45;&gt;N140522431953936 -->
<g id="edge46" class="edge"><title>N140522431954320&#45;&gt;N140522431953936</title>
<path fill="none" stroke="black" d="M1233.81,-220.807C1251,-209.665 1276.62,-193.062 1295.99,-180.504"/>
<polygon fill="black" stroke="black" points="1297.92,-183.429 1304.4,-175.053 1294.11,-177.555 1297.92,-183.429"/>
</g>
<!-- N140522431615568 -->
<g id="node46" class="node"><title>N140522431615568</title>
<ellipse fill="none" stroke="red" cx="1179" cy="-90" rx="27" ry="18"/>
<text text-anchor="middle" x="1179" y="-86.3" font-family="Times,serif" font-size="14.00">33</text>
</g>
<!-- N140522431954064&#45;&gt;N140522431615568 -->
<g id="edge41" class="edge"><title>N140522431954064&#45;&gt;N140522431615568</title>
<path fill="none" stroke="black" d="M1206.65,-144.765C1202.29,-136.283 1196.85,-125.714 1191.96,-116.197"/>
<polygon fill="black" stroke="black" points="1194.99,-114.439 1187.3,-107.147 1188.77,-117.641 1194.99,-114.439"/>
</g>
<!-- N140522431615248 -->
<g id="node47" class="node"><title>N140522431615248</title>
<ellipse fill="none" stroke="red" cx="1251" cy="-90" rx="27" ry="18"/>
<text text-anchor="middle" x="1251" y="-86.3" font-family="Times,serif" font-size="14.00">38</text>
</g>
<!-- N140522431954064&#45;&gt;N140522431615248 -->
<g id="edge42" class="edge"><title>N140522431954064&#45;&gt;N140522431615248</title>
<path fill="none" stroke="black" d="M1223.35,-144.765C1227.71,-136.283 1233.15,-125.714 1238.04,-116.197"/>
<polygon fill="black" stroke="black" points="1241.23,-117.641 1242.7,-107.147 1235.01,-114.439 1241.23,-117.641"/>
</g>
<!-- N140522431616080 -->
<g id="node49" class="node"><title>N140522431616080</title>
<ellipse fill="none" stroke="red" cx="1323" cy="-90" rx="27" ry="18"/>
<text text-anchor="middle" x="1323" y="-86.3" font-family="Times,serif" font-size="14.00">40</text>
</g>
<!-- N140522431953936&#45;&gt;N140522431616080 -->
<g id="edge44" class="edge"><title>N140522431953936&#45;&gt;N140522431616080</title>
<path fill="none" stroke="black" d="M1323,-143.697C1323,-135.983 1323,-126.712 1323,-118.112"/>
<polygon fill="black" stroke="black" points="1326.5,-118.104 1323,-108.104 1319.5,-118.104 1326.5,-118.104"/>
</g>
<!-- N140522431615504 -->
<g id="node50" class="node"><title>N140522431615504</title>
<ellipse fill="none" stroke="red" cx="1395" cy="-90" rx="27" ry="18"/>
<text text-anchor="middle" x="1395" y="-86.3" font-family="Times,serif" font-size="14.00">45</text>
</g>
<!-- N140522431953936&#45;&gt;N140522431615504 -->
<g id="edge45" class="edge"><title>N140522431953936&#45;&gt;N140522431615504</title>
<path fill="none" stroke="black" d="M1337.57,-146.834C1347.75,-136.938 1361.52,-123.546 1373.03,-112.359"/>
<polygon fill="black" stroke="black" points="1375.47,-114.865 1380.2,-105.385 1370.59,-109.846 1375.47,-114.865"/>
</g>
</g>
</svg>
